<svg xmlns="http://www.w3.org/2000/svg" viewBox="0 0 100 100" role="img" aria-label="SparkyPawsCare">
  <title>SparkyPawsCare</title>
  <!-- Toe pads: elongated and radially oriented so the arc reads as a spark -->
  <g fill="#344D79">
    <ellipse cx="24.7" cy="43.4" rx="6.8" ry="11.7" transform="rotate(-52 24.7 43.4)"/>
    <ellipse cx="37.7" cy="34.3" rx="6.8" ry="11.7" transform="rotate(-18 37.7 34.3)"/>
    <ellipse cx="54.3" cy="34.3" rx="6.8" ry="11.7" transform="rotate(18 54.3 34.3)"/>
    <ellipse cx="67.3" cy="43.4" rx="6.8" ry="11.7" transform="rotate(52 67.3 43.4)"/>
    <!-- Main metacarpal pad -->
    <path d="M46 59 C57.7 59 67.2 65.3 67.6 73.4 C68.1 82.4 58.6 88.7 46 88.7 C33.4 88.7 23.9 82.4 24.4 73.4 C24.8 65.3 34.3 59 46 59 Z"/>
  </g>
  <!-- Spark / citation asterisk -->
  <path fill="#C97B5A" d="M84 8 Q84 17 93 17 Q84 17 84 26 Q84 17 75 17 Q84 17 84 8 Z"/>
</svg>
